# xmcd
#
# Track frame offsets: 
#        183
#        15393
#        34308
#        52233
#        73520
#        88210
#        104978
#        122918
#        138170
#        153973
#        168758
#        179545
#        196758
#
# Disc length: 3137 seconds
#
# Revision: 2
# Processed by: cddbd v1.5.2PL0 Copyright (c) Steve Scherf et al.
# Submitted via: ExactAudioCopyFreeDBPlugin 1.0
#
DISCID=b50c3f0d
DTITLE=Various Artist - Blue Guitar Album
DYEAR=1988
DGENRE=Blues
TTITLE0=Big Bill Broonzy - Guitar Shuffle
TTITLE1=Lightnin'  Hopkins - Good Times
TTITLE2=Brownie McGhee - That's How I Feel
TTITLE3=Jimmy Reed - Instrumental
TTITLE4=Jimmy Dawkins - Blues In The Ghetto
TTITLE5=Hubert Sumlin - Straight Talk
TTITLE6=John Lee Hooker - Wednesday Evening Blues
TTITLE7=The Aces - The Aces' Shuffle
TTITLE8=Louisiana Red - I'm Louisiana Red
TTITLE9=Big Bill Broonzy - House Rent Stomp
TTITLE10=Lightnin'  Hopkins - What Did I Say
TTITLE11=John Lee Hooker - Blue Before Sunrise
TTITLE12=Jimi Hendrix - C Blues (People, People, People)
EXTD=
EXTT0=
EXTT1=
EXTT2=
EXTT3=
EXTT4=
EXTT5=
EXTT6=
EXTT7=
EXTT8=
EXTT9=
EXTT10=
EXTT11=
EXTT12=
PLAYORDER=
